#tb 0: 1/25
#media_type 0: video
#codec_id 0: rawvideo
#dimensions 0: 720x576
#sar 0: 16/15
0,          9,          9,        1,  1244160, 0x24eeca92
0,         10,         10,        1,  1244160, 0x96b8e646
0,         11,         11,        1,  1244160, 0xc11fc5da
0,         12,         12,        1,  1244160, 0xc15f9168
0,         13,         13,        1,  1244160, 0xba1c738e
0,         14,         14,        1,  1244160, 0x56b59681
0,         15,         15,        1,  1244160, 0x14ad778d
0,         16,         16,        1,  1244160, 0x18dc584b
0,         17,         17,        1,  1244160, 0xe4c11635
0,         18,         18,        1,  1244160, 0x85cc0dc0
0,         19,         19,        1,  1244160, 0x2d6a65a4
0,         20,         20,        1,  1244160, 0x4054d8f9
0,         21,         21,        1,  1244160, 0xebce97d3
0,         22,         22,        1,  1244160, 0x79437c93
0,         23,         23,        1,  1244160, 0x6438ed40
0,         24,         24,        1,  1244160, 0x9121928c
0,         25,         25,        1,  1244160, 0xb8731075
0,         26,         26,        1,  1244160, 0xfb01310e
0,         27,         27,        1,  1244160, 0x97be489c
0,         28,         28,        1,  1244160, 0xa5b4b8aa
0,         29,         29,        1,  1244160, 0x00a7ae0f
0,         30,         30,        1,  1244160, 0x514fa990
0,         31,         31,        1,  1244160, 0xd73c3f66
0,         32,         32,        1,  1244160, 0x3602e6c3
0,         33,         33,        1,  1244160, 0xa16ad8ab
0,         34,         34,        1,  1244160, 0xdf11ac80
0,         35,         35,        1,  1244160, 0x1f084421
0,         36,         36,        1,  1244160, 0x9fc1bd32
0,         37,         37,        1,  1244160, 0x1389f6cf
0,         38,         38,        1,  1244160, 0x6fc5f0e5
